<svg id="visual" viewBox="0 0 900 600" width="900" height="600" xmlns="http://www.w3.org/2000/svg" xmlns:xlink="http://www.w3.org/1999/xlink" version="1.1"><rect x="0" y="0" width="900" height="600" fill="#fff"></rect><path d="M0 47L900 37L900 0L0 0Z" fill="#002f64"></path><path d="M0 45L900 46L900 0L0 0Z" fill="#002958"></path><path d="M0 22L900 25L900 0L0 0Z" fill="#00244c"></path><path d="M0 27L900 22L900 0L0 0Z" fill="#001e40"></path><path d="M0 19L900 37L900 0L0 0Z" fill="#011934"></path><path d="M0 7L900 25L900 0L0 0Z" fill="#021329"></path><path d="M0 10L900 13L900 0L0 0Z" fill="#010f23"></path><path d="M0 20L900 5L900 0L0 0Z" fill="#010e22"></path><path d="M0 5L900 8L900 0L0 0Z" fill="#010e20"></path><path d="M0 7L900 15L900 0L0 0Z" fill="#000d1f"></path><path d="M0 4L900 9L900 0L0 0Z" fill="#000d1d"></path><path d="M0 2L900 1L900 0L0 0Z" fill="#000c1c"></path></svg>